<?xml version="1.0" standalone="no"?>
<!DOCTYPE svg PUBLIC "-//W3C//DTD SVG 20010904//EN"
 "http://www.w3.org/TR/2001/REC-SVG-20010904/DTD/svg10.dtd">
<svg version="1.0" xmlns="http://www.w3.org/2000/svg"
 width="500.000000pt" height="500.000000pt" viewBox="0 0 500.000000 500.000000"
 preserveAspectRatio="xMidYMid meet">

<g transform="translate(0.000000,500.000000) scale(0.100000,-0.100000)"
fill="#000000" stroke="none">
<path d="M1147 4311 c71 -24 117 -62 144 -118 l24 -48 0 -1060 0 -1060 -22
-40 c-11 -22 -32 -50 -45 -62 -26 -25 -105 -62 -130 -63 -10 0 -18 -4 -18 -10
0 -7 182 -10 525 -10 l525 0 0 -515 c0 -491 -1 -518 -19 -554 -34 -66 -115
-121 -178 -121 -7 0 -13 -4 -13 -10 0 -14 1190 -13 1318 1 113 12 276 63 372
116 267 147 483 420 574 724 45 153 51 196 51 389 0 157 -4 201 -24 290 -68
311 -230 568 -471 752 -84 64 -262 150 -370 179 -84 23 -95 23 -767 27 l-683
3 0 516 c0 460 2 519 17 550 27 57 80 101 147 122 l61 19 -535 0 c-525 1 -534
0 -483 -17z m909 -1243 c19 -12 47 -41 62 -63 l27 -40 3 -553 2 -554 -32 7
c-47 10 -113 50 -136 83 -41 58 -42 76 -42 625 l0 530 41 -6 c22 -3 56 -16 75
-29z m952 18 c77 -21 157 -71 233 -146 381 -377 476 -1247 200 -1836 -54 -115
-130 -221 -217 -303 -114 -109 -215 -151 -361 -151 l-83 0 0 1225 0 1225 88 0
c48 0 111 -7 140 -14z"/>
</g>
</svg>
